<svg width="30" height="30" viewBox="0 0 30 30" fill="none" xmlns="http://www.w3.org/2000/svg">
<path d="M19.375 2.5C16.25 2.5 13.75 5 13.75 8.125C13.75 11.25 16.25 13.75 19.375 13.75C20.5 13.75 21.5 13.375 22.375 12.875L26.25 16.75L28 15L24.125 11.125C24.625 10.25 25 9.25 25 8.125C25 5 22.5 2.5 19.375 2.5ZM5 5C4.33696 5 3.70107 5.26339 3.23223 5.73223C2.76339 6.20107 2.5 6.83696 2.5 7.5V25C2.5 25.663 2.76339 26.2989 3.23223 26.7678C3.70107 27.2366 4.33696 27.5 5 27.5H22.5C23.163 27.5 23.7989 27.2366 24.2678 26.7678C24.7366 26.2989 25 25.663 25 25V18.75L22.5 16.25V25H5V7.5H11.2875C11.3625 6.625 11.575 5.8125 11.875 5H5ZM19.375 5C21.125 5 22.5 6.375 22.5 8.125C22.5 9.875 21.125 11.25 19.375 11.25C17.625 11.25 16.25 9.875 16.25 8.125C16.25 6.375 17.625 5 19.375 5Z" fill="black"/>
</svg>
