<svg width="100" height="100" viewBox="0 0 100 100" fill="none" xmlns="http://www.w3.org/2000/svg">
<path fill-rule="evenodd" clip-rule="evenodd" d="M14 22H85.5C86.0523 22 86.5 22.4477 86.5 23V77C86.5 77.5523 86.0523 78 85.5 78H14C13.4477 78 13 77.5523 13 77V23C13 22.4477 13.4477 22 14 22ZM6 23C6 18.5817 9.58172 15 14 15H85.5C89.9183 15 93.5 18.5817 93.5 23V77C93.5 81.4183 89.9183 85 85.5 85H14C9.58172 85 6 81.4183 6 77V23ZM25 29C22.2386 29 20 31.2386 20 34V43.6212C20 46.3826 22.2386 48.6212 25 48.6212H43.306C46.0674 48.6212 48.306 46.3826 48.306 43.6212V34C48.306 31.2386 46.0674 29 43.306 29H25ZM53.0238 32.9242C53.0238 30.7569 54.7808 29 56.9481 29H73.6315C75.7988 29 77.5557 30.7569 77.5557 32.9242C77.5557 35.0915 75.7988 36.8485 73.6315 36.8485H56.9481C54.7808 36.8485 53.0238 35.0915 53.0238 32.9242ZM56.9481 40.7727C54.7808 40.7727 53.0238 42.5296 53.0238 44.6969C53.0238 46.8642 54.7808 48.6211 56.9481 48.6211H73.6315C75.7988 48.6211 77.5557 46.8642 77.5557 44.6969C77.5557 42.5296 75.7988 40.7727 73.6315 40.7727H56.9481ZM20 56.4697C20 54.3024 21.7569 52.5455 23.9242 52.5455H73.6313C75.7986 52.5455 77.5555 54.3024 77.5555 56.4697C77.5555 58.637 75.7986 60.3939 73.6313 60.3939H23.9242C21.7569 60.3939 20 58.637 20 56.4697ZM23.9242 64.3182C21.7569 64.3182 20 66.0751 20 68.2424C20 70.4097 21.7569 72.1667 23.9242 72.1667H73.6313C75.7986 72.1667 77.5555 70.4097 77.5555 68.2424C77.5555 66.0751 75.7986 64.3182 73.6313 64.3182H23.9242Z" fill="url(#paint0_linear)"/>
<defs>
<linearGradient id="paint0_linear" x1="6" y1="50" x2="93.5" y2="50" gradientUnits="userSpaceOnUse">
<stop stop-color="#B474E7"/>
<stop offset="1" stop-color="#EF4AB7"/>
</linearGradient>
</defs>
</svg>
