<svg width="100" height="100" viewBox="0 0 100 100" fill="none" xmlns="http://www.w3.org/2000/svg">
<path fill-rule="evenodd" clip-rule="evenodd" d="M44 17C44 15.8954 44.8954 15 46 15H54C55.1046 15 56 15.8954 56 17V22.7727C58.9811 23.4951 61.7724 24.7033 64.2853 26.3088L68.1459 22.3186C68.914 21.5248 70.1801 21.5039 70.974 22.2719L76.7234 27.8347C77.5172 28.6027 77.5381 29.8689 76.7701 30.6627L72.7541 34.8135C74.5053 37.5806 75.7763 40.6818 76.4499 44H82C83.1046 44 84 44.8954 84 46V54C84 55.1046 83.1046 56 82 56H76.2273C75.5876 58.64 74.5668 61.1311 73.2266 63.4119L77.3767 67.4272C78.1706 68.1953 78.1915 69.4615 77.4234 70.2553L71.8607 76.0047C71.0926 76.7985 69.8264 76.8194 69.0326 76.0514L65.0418 72.1902C62.337 74.0464 59.2837 75.4316 56 76.2273V82C56 83.1046 55.1046 84 54 84H46C44.8954 84 44 83.1046 44 82V76.4499C40.9881 75.8385 38.155 74.7349 35.5882 73.2266L31.5728 77.3768C30.8048 78.1706 29.5386 78.1915 28.7448 77.4234L22.9953 71.8607C22.2015 71.0926 22.1806 69.8265 22.9487 69.0326L26.8099 65.0419C24.9536 62.3371 23.5684 59.2837 22.7727 56H17C15.8954 56 15 55.1046 15 54V46C15 44.8954 15.8954 44 17 44H22.5501C23.2317 40.6423 24.525 37.5067 26.3088 34.7147L22.3186 30.8541C21.5248 30.086 21.5039 28.8199 22.2719 28.026L27.8347 22.2766C28.6027 21.4828 29.8689 21.4619 30.6627 22.2299L34.8135 26.2459C37.5806 24.4947 40.6818 23.2237 44 22.5501V17ZM49.5 67C59.165 67 67 59.165 67 49.5C67 39.835 59.165 32 49.5 32C39.835 32 32 39.835 32 49.5C32 59.165 39.835 67 49.5 67Z" fill="url(#paint0_linear)"/>
<defs>
<linearGradient id="paint0_linear" x1="15" y1="49.5" x2="84" y2="49.5" gradientUnits="userSpaceOnUse">
<stop stop-color="#B474E7"/>
<stop offset="1" stop-color="#EF4AB7"/>
</linearGradient>
</defs>
</svg>
