<svg width="81" height="66" viewBox="0 0 81 66" fill="none" xmlns="http://www.w3.org/2000/svg">
<path fill-rule="evenodd" clip-rule="evenodd" d="M10 0.5C4.75329 0.5 0.5 4.7533 0.5 10V56C0.5 61.2467 4.75329 65.5 10 65.5H71C76.2467 65.5 80.5 61.2467 80.5 56V10C80.5 4.7533 76.2467 0.5 71 0.5H10ZM5.5 10C5.5 7.51472 7.51472 5.5 10 5.5H71C73.4853 5.5 75.5 7.51472 75.5 10V56C75.5 58.4853 73.4853 60.5 71 60.5H10C7.51472 60.5 5.5 58.4853 5.5 56V10ZM15 10C12.2386 10 10 12.2386 10 15V25C10 27.7614 12.2386 30 15 30H35C37.7614 30 40 27.7614 40 25V15C40 12.2386 37.7614 10 35 10H15ZM45 14C45 11.7909 46.7909 10 49 10H67C69.2091 10 71 11.7909 71 14C71 16.2091 69.2091 18 67 18H49C46.7909 18 45 16.2091 45 14ZM49 22C46.7909 22 45 23.7909 45 26C45 28.2091 46.7909 30 49 30H67C69.2091 30 71 28.2091 71 26C71 23.7909 69.2091 22 67 22H49ZM10 38C10 35.7909 11.7909 34 14 34H67C69.2091 34 71 35.7909 71 38C71 40.2091 69.2091 42 67 42H14C11.7909 42 10 40.2091 10 38ZM14 46C11.7909 46 10 47.7909 10 50C10 52.2091 11.7909 54 14 54H67C69.2091 54 71 52.2091 71 50C71 47.7909 69.2091 46 67 46H14Z" fill="black"/>
</svg>
