<svg width="100" height="100" viewBox="0 0 100 100" fill="none" xmlns="http://www.w3.org/2000/svg">
<path fill-rule="evenodd" clip-rule="evenodd" d="M29.6364 19C26.8154 19 24.11 20.1206 22.1153 22.1153C20.1206 24.11 19 26.8154 19 29.6364V70.5455C19 73.3664 20.1206 76.0718 22.1153 78.0665C23.8109 79.7621 26.02 80.8261 28.3772 81.1071L56.4824 50.19L58.7061 52.2114L56.4827 50.1897C57.4006 49.1801 58.5189 48.373 59.7662 47.8198C61.0135 47.2666 62.3624 46.9795 63.7269 46.9767C65.0914 46.9739 66.4414 47.2556 67.691 47.8037C68.9405 48.3519 70.0621 49.1544 70.9841 50.1602L81.1818 61.2815V29.6364C81.1818 26.8154 80.0612 24.11 78.0665 22.1153C76.0718 20.1206 73.3664 19 70.5455 19H29.6364ZM87.1818 70.5455V29.6364C87.1818 25.2241 85.4291 20.9926 82.3091 17.8727C79.1892 14.7528 74.9577 13 70.5455 13H29.6364C25.2241 13 20.9926 14.7528 17.8727 17.8727C14.7528 20.9926 13 25.2241 13 29.6364V70.5455C13 74.9577 14.7528 79.1892 17.8727 82.3091C20.9926 85.4291 25.2241 87.1818 29.6364 87.1818H70.5455C70.5561 87.1818 70.5667 87.1818 70.5773 87.1818H70.9989C75.2908 87.1818 79.4071 85.4768 82.4419 82.4419C85.4768 79.407 87.1818 75.2908 87.1818 70.9988V70.5455ZM81.1818 70.5455C81.1818 70.3362 81.1622 70.2443 81.1568 70.2222L81.1563 70.2201C81.1538 70.21 81.153 70.2065 81.1417 70.1866C81.1212 70.1506 81.0676 70.0667 80.9242 69.8952C80.7836 69.7271 80.6193 69.5473 80.3711 69.2756L80.3002 69.1979L80.2959 69.1932L66.5616 54.215L66.5613 54.2147C66.2028 53.8236 65.7666 53.5115 65.2807 53.2983C64.7947 53.0851 64.2697 52.9756 63.7391 52.9767C63.2085 52.9778 62.6839 53.0894 62.1988 53.3046C61.7139 53.5196 61.2791 53.8334 60.9221 54.2259L60.9219 54.2262L36.4178 81.1818H70.5709C73.3827 81.1751 76.0778 80.0552 78.0665 78.0665C80.0612 76.0718 81.1818 73.3664 81.1818 70.5455ZM38.1591 32.6364C35.109 32.6364 32.6364 35.109 32.6364 38.1591C32.6364 41.2092 35.109 43.6818 38.1591 43.6818C41.2092 43.6818 43.6818 41.2092 43.6818 38.1591C43.6818 35.109 41.2092 32.6364 38.1591 32.6364ZM26.6364 38.1591C26.6364 31.7953 31.7953 26.6364 38.1591 26.6364C44.5229 26.6364 49.6818 31.7953 49.6818 38.1591C49.6818 44.5229 44.5229 49.6818 38.1591 49.6818C31.7953 49.6818 26.6364 44.5229 26.6364 38.1591Z" fill="url(#paint0_linear)"/>
<defs>
<linearGradient id="paint0_linear" x1="15" y1="50.0909" x2="85.1818" y2="50.0909" gradientUnits="userSpaceOnUse">
<stop stop-color="#B474E7"/>
<stop offset="1" stop-color="#EF4AB7"/>
</linearGradient>
</defs>
</svg>
