<svg width="100" height="100" viewBox="0 0 100 100" fill="none" xmlns="http://www.w3.org/2000/svg">
<path d="M49.1726 65.3736C49.2523 65.4754 49.3542 65.5578 49.4705 65.6145C49.5867 65.6711 49.7144 65.7006 49.8438 65.7006C49.9731 65.7006 50.1008 65.6711 50.217 65.6145C50.3333 65.5578 50.4352 65.4754 50.5149 65.3736L62.4467 50.2777C62.8835 49.7237 62.4893 48.9034 61.7756 48.9034H53.8814V12.8523C53.8814 12.3835 53.4979 12 53.0291 12H46.6371C46.1683 12 45.7848 12.3835 45.7848 12.8523V48.8928H37.9119C37.1982 48.8928 36.804 49.7131 37.2408 50.267L49.1726 65.3736ZM88.8352 61.6449H82.4432C81.9744 61.6449 81.5909 62.0284 81.5909 62.4972V78.9034H18.0966V62.4972C18.0966 62.0284 17.7131 61.6449 17.2443 61.6449H10.8523C10.3835 61.6449 10 62.0284 10 62.4972V83.5909C10 85.4766 11.5234 87 13.4091 87H86.2784C88.1641 87 89.6875 85.4766 89.6875 83.5909V62.4972C89.6875 62.0284 89.304 61.6449 88.8352 61.6449Z" fill="url(#paint0_linear)"/>
<defs>
<linearGradient id="paint0_linear" x1="10" y1="49.5" x2="89.6875" y2="49.5" gradientUnits="userSpaceOnUse">
<stop stop-color="#B474E7"/>
<stop offset="1" stop-color="#EF4AB7"/>
</linearGradient>
</defs>
</svg>
