<svg width="100" height="100" viewBox="0 0 100 100" fill="none" xmlns="http://www.w3.org/2000/svg">
<path fill-rule="evenodd" clip-rule="evenodd" d="M59.2143 18.3571H16.3571V82.6429H64.5714C64.5714 84.0637 64.007 85.4263 63.0024 86.4309C61.9977 87.4356 60.6351 88 59.2143 88H16.3571C14.9363 88 13.5737 87.4356 12.5691 86.4309C11.5644 85.4263 11 84.0637 11 82.6429V18.3571C11 16.9363 11.5644 15.5737 12.5691 14.5691C13.5737 13.5644 14.9363 13 16.3571 13H59.2143C60.6351 13 61.9977 13.5644 63.0024 14.5691C64.007 15.5737 64.5714 16.9363 64.5714 18.3571V44.6071H59.2143V18.3571ZM71.1901 47.9293C71.8642 47.9033 72.5233 48.1326 73.0357 48.5714L88.6786 64.0804L73.0357 79.6161C72.7956 79.8965 72.5001 80.1242 72.1678 80.285C71.8355 80.4458 71.4735 80.5361 71.1046 80.5504C70.7357 80.5646 70.3679 80.5024 70.0241 80.3678C69.6804 80.2331 69.3682 80.0289 69.1072 79.7678C68.8462 79.5068 68.6419 79.1946 68.5072 78.8509C68.3726 78.5071 68.3104 78.1393 68.3247 77.7704C68.3389 77.4015 68.4293 77.0395 68.59 76.7072C68.7508 76.3749 68.9785 76.0794 69.2589 75.8393L78.3125 66.5714H39.4732C38.7628 66.5714 38.0815 66.2892 37.5792 65.7869C37.0769 65.2846 36.7947 64.6033 36.7947 63.8929C36.7947 63.1825 37.0769 62.5012 37.5792 61.9988C38.0815 61.4965 38.7628 61.2143 39.4732 61.2143H78.3125L69.2589 52.3482C68.8201 51.8358 68.5908 51.1767 68.6169 50.5025C68.6429 49.8284 68.9224 49.1889 69.3994 48.7119C69.8764 48.2348 70.5159 47.9554 71.1901 47.9293Z" fill="black"/>
</svg>
